<mxfile host="app.diagrams.net" modified="2023-05-25T13:58:56.324Z" agent="Mozilla/5.0 (X11; Linux x86_64; rv:102.0) Gecko/20100101 Firefox/102.0" etag="zOO6EbvS0rmXKZZ5BJn-" version="21.3.3" type="device">
  <diagram id="R2lEEEUBdFMjLlhIrx00" name="Page-1">
    <mxGraphModel dx="1674" dy="757" grid="1" gridSize="10" guides="1" tooltips="1" connect="1" arrows="1" fold="1" page="1" pageScale="1" pageWidth="850" pageHeight="1100" math="0" shadow="0" extFonts="Permanent Marker^https://fonts.googleapis.com/css?family=Permanent+Marker">
      <root>
        <mxCell id="0" />
        <mxCell id="1" parent="0" />
        <mxCell id="Zozthz9DAWvSnEIWpa6r-11" style="rounded=0;orthogonalLoop=1;jettySize=auto;html=1;exitX=0.5;exitY=0;exitDx=0;exitDy=0;entryX=0.073;entryY=0.833;entryDx=0;entryDy=0;entryPerimeter=0;" edge="1" parent="1" source="Zozthz9DAWvSnEIWpa6r-1" target="Zozthz9DAWvSnEIWpa6r-3">
          <mxGeometry relative="1" as="geometry" />
        </mxCell>
        <mxCell id="Zozthz9DAWvSnEIWpa6r-12" style="rounded=0;orthogonalLoop=1;jettySize=auto;html=1;exitX=1;exitY=0.5;exitDx=0;exitDy=0;entryX=0;entryY=0.5;entryDx=0;entryDy=0;" edge="1" parent="1" source="Zozthz9DAWvSnEIWpa6r-1" target="Zozthz9DAWvSnEIWpa6r-4">
          <mxGeometry relative="1" as="geometry" />
        </mxCell>
        <mxCell id="Zozthz9DAWvSnEIWpa6r-13" style="rounded=0;orthogonalLoop=1;jettySize=auto;html=1;exitX=1;exitY=0.5;exitDx=0;exitDy=0;entryX=0.5;entryY=0;entryDx=0;entryDy=0;" edge="1" parent="1" source="Zozthz9DAWvSnEIWpa6r-1" target="Zozthz9DAWvSnEIWpa6r-5">
          <mxGeometry relative="1" as="geometry" />
        </mxCell>
        <mxCell id="Zozthz9DAWvSnEIWpa6r-16" style="rounded=0;orthogonalLoop=1;jettySize=auto;html=1;exitX=0.5;exitY=1;exitDx=0;exitDy=0;entryX=0.5;entryY=0;entryDx=0;entryDy=0;" edge="1" parent="1" source="Zozthz9DAWvSnEIWpa6r-1" target="Zozthz9DAWvSnEIWpa6r-15">
          <mxGeometry relative="1" as="geometry" />
        </mxCell>
        <mxCell id="Zozthz9DAWvSnEIWpa6r-22" style="rounded=0;orthogonalLoop=1;jettySize=auto;html=1;exitX=1;exitY=0.5;exitDx=0;exitDy=0;entryX=0;entryY=0.5;entryDx=0;entryDy=0;" edge="1" parent="1" source="Zozthz9DAWvSnEIWpa6r-1" target="Zozthz9DAWvSnEIWpa6r-21">
          <mxGeometry relative="1" as="geometry" />
        </mxCell>
        <mxCell id="Zozthz9DAWvSnEIWpa6r-24" style="rounded=0;orthogonalLoop=1;jettySize=auto;html=1;exitX=0.5;exitY=1;exitDx=0;exitDy=0;entryX=0.5;entryY=0;entryDx=0;entryDy=0;" edge="1" parent="1" source="Zozthz9DAWvSnEIWpa6r-1" target="Zozthz9DAWvSnEIWpa6r-23">
          <mxGeometry relative="1" as="geometry" />
        </mxCell>
        <mxCell id="Zozthz9DAWvSnEIWpa6r-44" style="edgeStyle=orthogonalEdgeStyle;rounded=0;orthogonalLoop=1;jettySize=auto;html=1;exitX=0.5;exitY=0;exitDx=0;exitDy=0;entryX=0.5;entryY=1;entryDx=0;entryDy=0;" edge="1" parent="1" source="Zozthz9DAWvSnEIWpa6r-1" target="Zozthz9DAWvSnEIWpa6r-43">
          <mxGeometry relative="1" as="geometry" />
        </mxCell>
        <mxCell id="Zozthz9DAWvSnEIWpa6r-1" value="Buch" style="rounded=0;whiteSpace=wrap;html=1;" vertex="1" parent="1">
          <mxGeometry x="140" y="140" width="120" height="60" as="geometry" />
        </mxCell>
        <mxCell id="Zozthz9DAWvSnEIWpa6r-3" value="Titel" style="ellipse;whiteSpace=wrap;html=1;" vertex="1" parent="1">
          <mxGeometry x="270" y="20" width="110" height="60" as="geometry" />
        </mxCell>
        <mxCell id="Zozthz9DAWvSnEIWpa6r-4" value="Jahr" style="ellipse;whiteSpace=wrap;html=1;" vertex="1" parent="1">
          <mxGeometry x="340" y="90" width="110" height="60" as="geometry" />
        </mxCell>
        <mxCell id="Zozthz9DAWvSnEIWpa6r-5" value="ISBN" style="ellipse;whiteSpace=wrap;html=1;" vertex="1" parent="1">
          <mxGeometry x="315" y="230" width="110" height="60" as="geometry" />
        </mxCell>
        <mxCell id="Zozthz9DAWvSnEIWpa6r-15" value="Buch_ID (PK)" style="ellipse;whiteSpace=wrap;html=1;" vertex="1" parent="1">
          <mxGeometry x="80" y="270" width="110" height="60" as="geometry" />
        </mxCell>
        <mxCell id="Zozthz9DAWvSnEIWpa6r-21" value="Anzahl Seiten" style="ellipse;whiteSpace=wrap;html=1;" vertex="1" parent="1">
          <mxGeometry x="390" y="160" width="110" height="60" as="geometry" />
        </mxCell>
        <mxCell id="Zozthz9DAWvSnEIWpa6r-23" value="Version (digital, Papier)" style="ellipse;whiteSpace=wrap;html=1;" vertex="1" parent="1">
          <mxGeometry x="220" y="280" width="110" height="60" as="geometry" />
        </mxCell>
        <mxCell id="Zozthz9DAWvSnEIWpa6r-30" style="edgeStyle=orthogonalEdgeStyle;rounded=0;orthogonalLoop=1;jettySize=auto;html=1;exitX=0.5;exitY=0;exitDx=0;exitDy=0;entryX=0.709;entryY=1.017;entryDx=0;entryDy=0;entryPerimeter=0;" edge="1" parent="1" source="Zozthz9DAWvSnEIWpa6r-25" target="Zozthz9DAWvSnEIWpa6r-28">
          <mxGeometry relative="1" as="geometry" />
        </mxCell>
        <mxCell id="Zozthz9DAWvSnEIWpa6r-31" style="edgeStyle=orthogonalEdgeStyle;rounded=0;orthogonalLoop=1;jettySize=auto;html=1;exitX=0.5;exitY=1;exitDx=0;exitDy=0;entryX=0.427;entryY=0.033;entryDx=0;entryDy=0;entryPerimeter=0;" edge="1" parent="1" source="Zozthz9DAWvSnEIWpa6r-25" target="Zozthz9DAWvSnEIWpa6r-27">
          <mxGeometry relative="1" as="geometry" />
        </mxCell>
        <mxCell id="Zozthz9DAWvSnEIWpa6r-32" style="edgeStyle=orthogonalEdgeStyle;rounded=0;orthogonalLoop=1;jettySize=auto;html=1;exitX=1;exitY=0.5;exitDx=0;exitDy=0;entryX=0.564;entryY=1.067;entryDx=0;entryDy=0;entryPerimeter=0;" edge="1" parent="1" source="Zozthz9DAWvSnEIWpa6r-25" target="Zozthz9DAWvSnEIWpa6r-26">
          <mxGeometry relative="1" as="geometry" />
        </mxCell>
        <mxCell id="Zozthz9DAWvSnEIWpa6r-25" value="Autor" style="rounded=0;whiteSpace=wrap;html=1;" vertex="1" parent="1">
          <mxGeometry x="660" y="140" width="120" height="60" as="geometry" />
        </mxCell>
        <mxCell id="Zozthz9DAWvSnEIWpa6r-26" value="Vorname" style="ellipse;whiteSpace=wrap;html=1;" vertex="1" parent="1">
          <mxGeometry x="740" y="50" width="110" height="60" as="geometry" />
        </mxCell>
        <mxCell id="Zozthz9DAWvSnEIWpa6r-27" value="Nachname" style="ellipse;whiteSpace=wrap;html=1;" vertex="1" parent="1">
          <mxGeometry x="680" y="230" width="110" height="60" as="geometry" />
        </mxCell>
        <mxCell id="Zozthz9DAWvSnEIWpa6r-28" value="Autor_ID" style="ellipse;whiteSpace=wrap;html=1;" vertex="1" parent="1">
          <mxGeometry x="610" y="50" width="110" height="60" as="geometry" />
        </mxCell>
        <mxCell id="Zozthz9DAWvSnEIWpa6r-33" value="Autor_ID (FK)" style="ellipse;whiteSpace=wrap;html=1;" vertex="1" parent="1">
          <mxGeometry x="550" y="360" width="110" height="60" as="geometry" />
        </mxCell>
        <mxCell id="Zozthz9DAWvSnEIWpa6r-37" style="rounded=0;orthogonalLoop=1;jettySize=auto;html=1;exitX=0.5;exitY=0;exitDx=0;exitDy=0;entryX=0.736;entryY=0.917;entryDx=0;entryDy=0;entryPerimeter=0;" edge="1" parent="1" source="Zozthz9DAWvSnEIWpa6r-35" target="Zozthz9DAWvSnEIWpa6r-36">
          <mxGeometry relative="1" as="geometry" />
        </mxCell>
        <mxCell id="Zozthz9DAWvSnEIWpa6r-38" style="rounded=0;orthogonalLoop=1;jettySize=auto;html=1;exitX=0.5;exitY=0;exitDx=0;exitDy=0;entryX=0;entryY=1;entryDx=0;entryDy=0;" edge="1" parent="1" source="Zozthz9DAWvSnEIWpa6r-35" target="Zozthz9DAWvSnEIWpa6r-33">
          <mxGeometry relative="1" as="geometry" />
        </mxCell>
        <mxCell id="Zozthz9DAWvSnEIWpa6r-35" value="BuchAutor" style="rounded=0;whiteSpace=wrap;html=1;" vertex="1" parent="1">
          <mxGeometry x="460" y="440" width="120" height="60" as="geometry" />
        </mxCell>
        <mxCell id="Zozthz9DAWvSnEIWpa6r-36" value="Buch_ID (FK)" style="ellipse;whiteSpace=wrap;html=1;" vertex="1" parent="1">
          <mxGeometry x="390" y="360" width="110" height="60" as="geometry" />
        </mxCell>
        <mxCell id="Zozthz9DAWvSnEIWpa6r-39" value="n....m" style="text;html=1;strokeColor=none;fillColor=none;align=center;verticalAlign=middle;whiteSpace=wrap;rounded=0;" vertex="1" parent="1">
          <mxGeometry x="490" y="470" width="60" height="30" as="geometry" />
        </mxCell>
        <mxCell id="Zozthz9DAWvSnEIWpa6r-45" style="edgeStyle=orthogonalEdgeStyle;rounded=0;orthogonalLoop=1;jettySize=auto;html=1;exitX=1;exitY=0.5;exitDx=0;exitDy=0;entryX=0;entryY=0.5;entryDx=0;entryDy=0;" edge="1" parent="1" source="Zozthz9DAWvSnEIWpa6r-40" target="Zozthz9DAWvSnEIWpa6r-41">
          <mxGeometry relative="1" as="geometry" />
        </mxCell>
        <mxCell id="Zozthz9DAWvSnEIWpa6r-46" style="edgeStyle=orthogonalEdgeStyle;rounded=0;orthogonalLoop=1;jettySize=auto;html=1;exitX=0.5;exitY=1;exitDx=0;exitDy=0;entryX=0.5;entryY=0;entryDx=0;entryDy=0;" edge="1" parent="1" source="Zozthz9DAWvSnEIWpa6r-40" target="Zozthz9DAWvSnEIWpa6r-42">
          <mxGeometry relative="1" as="geometry" />
        </mxCell>
        <mxCell id="Zozthz9DAWvSnEIWpa6r-40" value="Verlag" style="rounded=0;whiteSpace=wrap;html=1;" vertex="1" parent="1">
          <mxGeometry x="60" y="450" width="120" height="60" as="geometry" />
        </mxCell>
        <mxCell id="Zozthz9DAWvSnEIWpa6r-41" value="Verlag_ID (PK)" style="ellipse;whiteSpace=wrap;html=1;" vertex="1" parent="1">
          <mxGeometry x="220" y="450" width="110" height="60" as="geometry" />
        </mxCell>
        <mxCell id="Zozthz9DAWvSnEIWpa6r-42" value="Verlag_Name" style="ellipse;whiteSpace=wrap;html=1;" vertex="1" parent="1">
          <mxGeometry x="70" y="530" width="110" height="60" as="geometry" />
        </mxCell>
        <mxCell id="Zozthz9DAWvSnEIWpa6r-43" value="Verlag_ID (FK)" style="ellipse;whiteSpace=wrap;html=1;" vertex="1" parent="1">
          <mxGeometry x="75" y="20" width="110" height="60" as="geometry" />
        </mxCell>
        <mxCell id="Zozthz9DAWvSnEIWpa6r-49" style="edgeStyle=orthogonalEdgeStyle;rounded=0;orthogonalLoop=1;jettySize=auto;html=1;exitX=1;exitY=0.5;exitDx=0;exitDy=0;" edge="1" parent="1" source="Zozthz9DAWvSnEIWpa6r-47" target="Zozthz9DAWvSnEIWpa6r-48">
          <mxGeometry relative="1" as="geometry" />
        </mxCell>
        <mxCell id="Zozthz9DAWvSnEIWpa6r-51" style="edgeStyle=orthogonalEdgeStyle;rounded=0;orthogonalLoop=1;jettySize=auto;html=1;exitX=0.5;exitY=1;exitDx=0;exitDy=0;entryX=0.5;entryY=0;entryDx=0;entryDy=0;" edge="1" parent="1" source="Zozthz9DAWvSnEIWpa6r-47" target="Zozthz9DAWvSnEIWpa6r-50">
          <mxGeometry relative="1" as="geometry" />
        </mxCell>
        <mxCell id="Zozthz9DAWvSnEIWpa6r-47" value="Kategorie" style="rounded=0;whiteSpace=wrap;html=1;" vertex="1" parent="1">
          <mxGeometry x="420" y="630" width="120" height="60" as="geometry" />
        </mxCell>
        <mxCell id="Zozthz9DAWvSnEIWpa6r-48" value="Kat_Name" style="ellipse;whiteSpace=wrap;html=1;" vertex="1" parent="1">
          <mxGeometry x="600" y="630" width="110" height="60" as="geometry" />
        </mxCell>
        <mxCell id="Zozthz9DAWvSnEIWpa6r-50" value="Kat_ID (PK)" style="ellipse;whiteSpace=wrap;html=1;" vertex="1" parent="1">
          <mxGeometry x="440" y="740" width="110" height="60" as="geometry" />
        </mxCell>
        <mxCell id="Zozthz9DAWvSnEIWpa6r-56" style="edgeStyle=orthogonalEdgeStyle;rounded=0;orthogonalLoop=1;jettySize=auto;html=1;exitX=0.5;exitY=1;exitDx=0;exitDy=0;" edge="1" parent="1" source="Zozthz9DAWvSnEIWpa6r-53" target="Zozthz9DAWvSnEIWpa6r-54">
          <mxGeometry relative="1" as="geometry" />
        </mxCell>
        <mxCell id="Zozthz9DAWvSnEIWpa6r-57" style="edgeStyle=orthogonalEdgeStyle;rounded=0;orthogonalLoop=1;jettySize=auto;html=1;exitX=1;exitY=0.5;exitDx=0;exitDy=0;entryX=0;entryY=0;entryDx=0;entryDy=0;" edge="1" parent="1" source="Zozthz9DAWvSnEIWpa6r-53" target="Zozthz9DAWvSnEIWpa6r-55">
          <mxGeometry relative="1" as="geometry" />
        </mxCell>
        <mxCell id="Zozthz9DAWvSnEIWpa6r-53" value="BuchKategorie" style="rounded=0;whiteSpace=wrap;html=1;" vertex="1" parent="1">
          <mxGeometry x="75" y="730" width="120" height="60" as="geometry" />
        </mxCell>
        <mxCell id="Zozthz9DAWvSnEIWpa6r-54" value="Buch_ID (FK)" style="ellipse;whiteSpace=wrap;html=1;" vertex="1" parent="1">
          <mxGeometry x="65" y="840" width="110" height="60" as="geometry" />
        </mxCell>
        <mxCell id="Zozthz9DAWvSnEIWpa6r-55" value="Kat_ID (FK)" style="ellipse;whiteSpace=wrap;html=1;" vertex="1" parent="1">
          <mxGeometry x="240" y="830" width="110" height="60" as="geometry" />
        </mxCell>
        <mxCell id="Zozthz9DAWvSnEIWpa6r-58" value="n....m" style="text;html=1;strokeColor=none;fillColor=none;align=center;verticalAlign=middle;whiteSpace=wrap;rounded=0;" vertex="1" parent="1">
          <mxGeometry x="95" y="720" width="60" height="30" as="geometry" />
        </mxCell>
      </root>
    </mxGraphModel>
  </diagram>
</mxfile>
